<mxfile host="Electron" modified="2024-05-15T03:12:35.060Z" agent="Mozilla/5.0 (Windows NT 10.0; Win64; x64) AppleWebKit/537.36 (KHTML, like Gecko) draw.io/24.4.0 Chrome/120.0.6099.109 Electron/28.1.0 Safari/537.36" etag="nU2PqQ6G5H-1LUGSkyno" version="24.4.0" type="device">
  <diagram name="第 1 页" id="FMP3942vVoAkyzEO4C84">
    <mxGraphModel dx="1434" dy="2076" grid="1" gridSize="10" guides="1" tooltips="1" connect="1" arrows="1" fold="1" page="1" pageScale="1" pageWidth="827" pageHeight="1169" math="0" shadow="0">
      <root>
        <mxCell id="0" />
        <mxCell id="1" parent="0" />
        <mxCell id="G5kktZHgfrruFAhplKHD-1" value="游戏客户端进程" style="swimlane;whiteSpace=wrap;html=1;fillColor=#d5e8d4;strokeColor=#82b366;swimlaneFillColor=#D5E8D4;" vertex="1" parent="1">
          <mxGeometry x="70" y="160" width="210" height="350" as="geometry" />
        </mxCell>
        <mxCell id="G5kktZHgfrruFAhplKHD-2" value="Main Fiber" style="rounded=1;whiteSpace=wrap;html=1;fillColor=#dae8fc;strokeColor=#6c8ebf;" vertex="1" parent="G5kktZHgfrruFAhplKHD-1">
          <mxGeometry x="30" y="50" width="150" height="40" as="geometry" />
        </mxCell>
        <mxCell id="G5kktZHgfrruFAhplKHD-3" value="NetClient Fiber" style="rounded=1;whiteSpace=wrap;html=1;fillColor=#dae8fc;strokeColor=#6c8ebf;" vertex="1" parent="G5kktZHgfrruFAhplKHD-1">
          <mxGeometry x="40" y="290" width="150" height="40" as="geometry" />
        </mxCell>
        <mxCell id="G5kktZHgfrruFAhplKHD-5" value="" style="endArrow=classic;html=1;rounded=0;exitX=0.713;exitY=1.1;exitDx=0;exitDy=0;entryX=0.647;entryY=0.025;entryDx=0;entryDy=0;entryPerimeter=0;exitPerimeter=0;" edge="1" parent="G5kktZHgfrruFAhplKHD-1" source="G5kktZHgfrruFAhplKHD-2" target="G5kktZHgfrruFAhplKHD-3">
          <mxGeometry width="50" height="50" relative="1" as="geometry">
            <mxPoint x="78" y="250" as="sourcePoint" />
            <mxPoint x="80" y="110" as="targetPoint" />
          </mxGeometry>
        </mxCell>
        <mxCell id="G5kktZHgfrruFAhplKHD-4" value="" style="endArrow=classic;html=1;rounded=0;exitX=0.25;exitY=0;exitDx=0;exitDy=0;entryX=0.333;entryY=1;entryDx=0;entryDy=0;entryPerimeter=0;" edge="1" parent="G5kktZHgfrruFAhplKHD-1" source="G5kktZHgfrruFAhplKHD-3" target="G5kktZHgfrruFAhplKHD-2">
          <mxGeometry width="50" height="50" relative="1" as="geometry">
            <mxPoint x="340" y="100" as="sourcePoint" />
            <mxPoint x="70" y="100" as="targetPoint" />
          </mxGeometry>
        </mxCell>
        <mxCell id="G5kktZHgfrruFAhplKHD-6" value="RouterManager服务器" style="rounded=1;whiteSpace=wrap;html=1;fontSize=17;fillColor=#fff2cc;strokeColor=#d6b656;" vertex="1" parent="1">
          <mxGeometry x="810" y="-90" width="210" height="60" as="geometry" />
        </mxCell>
        <mxCell id="G5kktZHgfrruFAhplKHD-7" value="" style="endArrow=classic;html=1;rounded=0;exitX=1;exitY=0.5;exitDx=0;exitDy=0;entryX=0.017;entryY=0.383;entryDx=0;entryDy=0;entryPerimeter=0;" edge="1" parent="1" source="G5kktZHgfrruFAhplKHD-3" target="G5kktZHgfrruFAhplKHD-6">
          <mxGeometry width="50" height="50" relative="1" as="geometry">
            <mxPoint x="750" y="330" as="sourcePoint" />
            <mxPoint x="800" y="-70" as="targetPoint" />
          </mxGeometry>
        </mxCell>
        <mxCell id="G5kktZHgfrruFAhplKHD-8" value="" style="endArrow=classic;html=1;rounded=0;entryX=1;entryY=0.75;entryDx=0;entryDy=0;exitX=-0.022;exitY=0.633;exitDx=0;exitDy=0;exitPerimeter=0;" edge="1" parent="1" source="G5kktZHgfrruFAhplKHD-6" target="G5kktZHgfrruFAhplKHD-3">
          <mxGeometry width="50" height="50" relative="1" as="geometry">
            <mxPoint x="750" y="330" as="sourcePoint" />
            <mxPoint x="800" y="280" as="targetPoint" />
          </mxGeometry>
        </mxCell>
        <mxCell id="G5kktZHgfrruFAhplKHD-9" value="1，获取所有的Router地址" style="text;html=1;align=center;verticalAlign=middle;whiteSpace=wrap;rounded=0;fontSize=14;" vertex="1" parent="1">
          <mxGeometry x="580" y="-60" width="190" height="20" as="geometry" />
        </mxCell>
        <mxCell id="G5kktZHgfrruFAhplKHD-10" value="" style="swimlane;startSize=0;fillColor=#f8cecc;strokeColor=#b85450;" vertex="1" parent="1">
          <mxGeometry x="720" y="180" width="190" height="240" as="geometry" />
        </mxCell>
        <mxCell id="G5kktZHgfrruFAhplKHD-11" value="Router1" style="rounded=1;whiteSpace=wrap;html=1;fillColor=#f8cecc;strokeColor=#b85450;fontSize=18;" vertex="1" parent="G5kktZHgfrruFAhplKHD-10">
          <mxGeometry x="35" y="32.5" width="130" height="35" as="geometry" />
        </mxCell>
        <mxCell id="G5kktZHgfrruFAhplKHD-12" value="Router2" style="rounded=1;whiteSpace=wrap;html=1;fillColor=#f8cecc;strokeColor=#b85450;fontSize=18;" vertex="1" parent="G5kktZHgfrruFAhplKHD-10">
          <mxGeometry x="35" y="82.5" width="130" height="35" as="geometry" />
        </mxCell>
        <mxCell id="G5kktZHgfrruFAhplKHD-13" value="Router3" style="rounded=1;whiteSpace=wrap;html=1;fillColor=#f8cecc;strokeColor=#b85450;fontSize=18;" vertex="1" parent="G5kktZHgfrruFAhplKHD-10">
          <mxGeometry x="35" y="132.5" width="130" height="35" as="geometry" />
        </mxCell>
        <mxCell id="G5kktZHgfrruFAhplKHD-14" value="Router4" style="rounded=1;whiteSpace=wrap;html=1;fillColor=#f8cecc;strokeColor=#b85450;fontSize=18;" vertex="1" parent="G5kktZHgfrruFAhplKHD-10">
          <mxGeometry x="35" y="182.5" width="130" height="35" as="geometry" />
        </mxCell>
        <mxCell id="G5kktZHgfrruFAhplKHD-17" value="2.客户端连接Router节点服务器，之后由节点服务器来转发和其他服务器的全部网络消息" style="text;html=1;align=left;verticalAlign=middle;whiteSpace=wrap;rounded=0;fontSize=14;" vertex="1" parent="1">
          <mxGeometry x="310" y="460" width="330" height="30" as="geometry" />
        </mxCell>
        <mxCell id="G5kktZHgfrruFAhplKHD-18" value="" style="endArrow=classic;html=1;rounded=0;" edge="1" parent="1">
          <mxGeometry width="50" height="50" relative="1" as="geometry">
            <mxPoint x="270" y="470" as="sourcePoint" />
            <mxPoint x="710" y="270" as="targetPoint" />
          </mxGeometry>
        </mxCell>
        <mxCell id="G5kktZHgfrruFAhplKHD-19" value="" style="endArrow=classic;html=1;rounded=0;" edge="1" parent="1">
          <mxGeometry width="50" height="50" relative="1" as="geometry">
            <mxPoint x="710" y="280" as="sourcePoint" />
            <mxPoint x="270" y="480" as="targetPoint" />
          </mxGeometry>
        </mxCell>
        <mxCell id="G5kktZHgfrruFAhplKHD-20" value="" style="swimlane;startSize=0;" vertex="1" parent="1">
          <mxGeometry x="1220" y="20" width="1200" height="750" as="geometry" />
        </mxCell>
        <mxCell id="G5kktZHgfrruFAhplKHD-21" value="Realm网关负载均衡服务器" style="rounded=1;whiteSpace=wrap;html=1;fontSize=18;fillColor=#b1ddf0;strokeColor=#10739e;" vertex="1" parent="G5kktZHgfrruFAhplKHD-20">
          <mxGeometry x="79" y="50" width="311" height="60" as="geometry" />
        </mxCell>
        <mxCell id="G5kktZHgfrruFAhplKHD-22" value="" style="swimlane;startSize=0;fillColor=#9999FF;" vertex="1" parent="G5kktZHgfrruFAhplKHD-20">
          <mxGeometry x="100" y="222.5" width="160" height="217.5" as="geometry" />
        </mxCell>
        <mxCell id="G5kktZHgfrruFAhplKHD-24" value="Gate1" style="rounded=1;whiteSpace=wrap;html=1;fillColor=#e1d5e7;strokeColor=#9673a6;" vertex="1" parent="G5kktZHgfrruFAhplKHD-22">
          <mxGeometry x="19" y="37.5" width="120" height="40" as="geometry" />
        </mxCell>
        <mxCell id="G5kktZHgfrruFAhplKHD-25" value="Gate2" style="rounded=1;whiteSpace=wrap;html=1;fillColor=#e1d5e7;strokeColor=#9673a6;" vertex="1" parent="G5kktZHgfrruFAhplKHD-22">
          <mxGeometry x="19" y="125" width="120" height="40" as="geometry" />
        </mxCell>
        <mxCell id="G5kktZHgfrruFAhplKHD-29" value="" style="swimlane;startSize=0;fillColor=#9999FF;" vertex="1" parent="G5kktZHgfrruFAhplKHD-20">
          <mxGeometry x="620" y="222.5" width="160" height="217.5" as="geometry" />
        </mxCell>
        <mxCell id="G5kktZHgfrruFAhplKHD-30" value="Map1" style="rounded=1;whiteSpace=wrap;html=1;fillColor=#cdeb8b;strokeColor=#36393d;" vertex="1" parent="G5kktZHgfrruFAhplKHD-29">
          <mxGeometry x="19" y="37.5" width="120" height="40" as="geometry" />
        </mxCell>
        <mxCell id="G5kktZHgfrruFAhplKHD-31" value="Map2" style="rounded=1;whiteSpace=wrap;html=1;fillColor=#cdeb8b;strokeColor=#36393d;" vertex="1" parent="G5kktZHgfrruFAhplKHD-29">
          <mxGeometry x="19" y="125" width="120" height="40" as="geometry" />
        </mxCell>
        <mxCell id="G5kktZHgfrruFAhplKHD-33" value="4.Realm服务器想Gate服务器请求生成连接令牌key" style="text;html=1;align=center;verticalAlign=middle;whiteSpace=wrap;rounded=0;" vertex="1" parent="G5kktZHgfrruFAhplKHD-20">
          <mxGeometry x="190" y="140" width="165.5" height="40" as="geometry" />
        </mxCell>
        <mxCell id="G5kktZHgfrruFAhplKHD-34" value="" style="endArrow=classic;startArrow=classic;html=1;rounded=0;entryX=0.381;entryY=-0.011;entryDx=0;entryDy=0;exitX=0.277;exitY=1.033;exitDx=0;exitDy=0;exitPerimeter=0;entryPerimeter=0;" edge="1" parent="G5kktZHgfrruFAhplKHD-20" source="G5kktZHgfrruFAhplKHD-21" target="G5kktZHgfrruFAhplKHD-22">
          <mxGeometry width="50" height="50" relative="1" as="geometry">
            <mxPoint x="78.99702702702709" y="112.5" as="sourcePoint" />
            <mxPoint x="208.47" y="222.5" as="targetPoint" />
          </mxGeometry>
        </mxCell>
        <mxCell id="G5kktZHgfrruFAhplKHD-35" value="" style="endArrow=classic;startArrow=classic;html=1;rounded=0;entryX=0;entryY=0.366;entryDx=0;entryDy=0;entryPerimeter=0;" edge="1" parent="G5kktZHgfrruFAhplKHD-20" target="G5kktZHgfrruFAhplKHD-29">
          <mxGeometry width="50" height="50" relative="1" as="geometry">
            <mxPoint x="260" y="301.6352173913045" as="sourcePoint" />
            <mxPoint x="560" y="300.0047826086955" as="targetPoint" />
          </mxGeometry>
        </mxCell>
        <mxCell id="G5kktZHgfrruFAhplKHD-36" value="6.客户端请求进入Map服务器，先在Gate服务器上闯将Unit实体，然后再传送进Map服务器" style="text;html=1;align=left;verticalAlign=middle;whiteSpace=wrap;rounded=0;" vertex="1" parent="G5kktZHgfrruFAhplKHD-20">
          <mxGeometry x="280" y="330" width="260" height="40" as="geometry" />
        </mxCell>
        <mxCell id="G5kktZHgfrruFAhplKHD-40" value="Location定位服务器" style="rounded=1;whiteSpace=wrap;html=1;fontSize=18;fillColor=#b1ddf0;strokeColor=#10739e;" vertex="1" parent="G5kktZHgfrruFAhplKHD-20">
          <mxGeometry x="289" y="600" width="231" height="60" as="geometry" />
        </mxCell>
        <mxCell id="G5kktZHgfrruFAhplKHD-41" value="" style="endArrow=classic;html=1;rounded=0;entryX=0.013;entryY=0.383;entryDx=0;entryDy=0;entryPerimeter=0;exitX=0.613;exitY=1.018;exitDx=0;exitDy=0;exitPerimeter=0;" edge="1" parent="G5kktZHgfrruFAhplKHD-20" source="G5kktZHgfrruFAhplKHD-22" target="G5kktZHgfrruFAhplKHD-40">
          <mxGeometry width="50" height="50" relative="1" as="geometry">
            <mxPoint x="170" y="480" as="sourcePoint" />
            <mxPoint x="220" y="430" as="targetPoint" />
          </mxGeometry>
        </mxCell>
        <mxCell id="G5kktZHgfrruFAhplKHD-42" value="" style="endArrow=classic;html=1;rounded=0;exitX=-0.004;exitY=0.617;exitDx=0;exitDy=0;exitPerimeter=0;entryX=0.563;entryY=1.023;entryDx=0;entryDy=0;entryPerimeter=0;" edge="1" parent="G5kktZHgfrruFAhplKHD-20" source="G5kktZHgfrruFAhplKHD-40" target="G5kktZHgfrruFAhplKHD-22">
          <mxGeometry width="50" height="50" relative="1" as="geometry">
            <mxPoint x="170" y="480" as="sourcePoint" />
            <mxPoint x="220" y="430" as="targetPoint" />
          </mxGeometry>
        </mxCell>
        <mxCell id="G5kktZHgfrruFAhplKHD-43" value="" style="endArrow=classic;html=1;rounded=0;entryX=0.369;entryY=1.014;entryDx=0;entryDy=0;entryPerimeter=0;exitX=1;exitY=0.5;exitDx=0;exitDy=0;" edge="1" parent="G5kktZHgfrruFAhplKHD-20" source="G5kktZHgfrruFAhplKHD-40" target="G5kktZHgfrruFAhplKHD-29">
          <mxGeometry width="50" height="50" relative="1" as="geometry">
            <mxPoint x="170" y="480" as="sourcePoint" />
            <mxPoint x="220" y="430" as="targetPoint" />
          </mxGeometry>
        </mxCell>
        <mxCell id="G5kktZHgfrruFAhplKHD-44" value="" style="endArrow=classic;html=1;rounded=0;exitX=1;exitY=0.75;exitDx=0;exitDy=0;entryX=1;entryY=0.75;entryDx=0;entryDy=0;" edge="1" parent="G5kktZHgfrruFAhplKHD-20" target="G5kktZHgfrruFAhplKHD-40">
          <mxGeometry width="50" height="50" relative="1" as="geometry">
            <mxPoint x="701.11" y="440" as="sourcePoint" />
            <mxPoint x="669.9988888888887" y="545" as="targetPoint" />
          </mxGeometry>
        </mxCell>
        <mxCell id="G5kktZHgfrruFAhplKHD-45" value="7.不管是Player映射实体，还是Unit实体，都会向Location服务器注册和更新ActorId(位置信息）" style="text;html=1;align=left;verticalAlign=middle;whiteSpace=wrap;rounded=0;" vertex="1" parent="G5kktZHgfrruFAhplKHD-20">
          <mxGeometry x="280" y="680" width="260" height="40" as="geometry" />
        </mxCell>
        <mxCell id="G5kktZHgfrruFAhplKHD-46" value="8.后续所有的游戏业务逻辑都由Map服务器上的Unit映射实体进行处理，Unit即为客户端再服务端上的映射对象" style="text;html=1;align=left;verticalAlign=middle;whiteSpace=wrap;rounded=0;" vertex="1" parent="G5kktZHgfrruFAhplKHD-20">
          <mxGeometry x="830" y="290" width="272" height="80" as="geometry" />
        </mxCell>
        <mxCell id="G5kktZHgfrruFAhplKHD-26" value="" style="endArrow=classic;startArrow=classic;html=1;rounded=0;entryX=0;entryY=0.25;entryDx=0;entryDy=0;" edge="1" parent="1" target="G5kktZHgfrruFAhplKHD-21">
          <mxGeometry width="50" height="50" relative="1" as="geometry">
            <mxPoint x="900" y="280" as="sourcePoint" />
            <mxPoint x="950" y="230" as="targetPoint" />
          </mxGeometry>
        </mxCell>
        <mxCell id="G5kktZHgfrruFAhplKHD-27" value="3.请求Realm分配合适的Gate网关服务器地址" style="text;html=1;align=left;verticalAlign=middle;whiteSpace=wrap;rounded=0;" vertex="1" parent="1">
          <mxGeometry x="920" y="40" width="190" height="40" as="geometry" />
        </mxCell>
        <mxCell id="G5kktZHgfrruFAhplKHD-37" value="5.客户端连接Gate网关服务器，在Gate网关服务器上创建Player映射实体" style="text;html=1;align=left;verticalAlign=middle;whiteSpace=wrap;rounded=0;" vertex="1" parent="1">
          <mxGeometry x="940" y="350" width="260" height="40" as="geometry" />
        </mxCell>
        <mxCell id="G5kktZHgfrruFAhplKHD-38" value="" style="endArrow=classic;html=1;rounded=0;exitX=1;exitY=0.538;exitDx=0;exitDy=0;exitPerimeter=0;entryX=0;entryY=0.306;entryDx=0;entryDy=0;entryPerimeter=0;" edge="1" parent="1" source="G5kktZHgfrruFAhplKHD-10" target="G5kktZHgfrruFAhplKHD-22">
          <mxGeometry width="50" height="50" relative="1" as="geometry">
            <mxPoint x="1240" y="230" as="sourcePoint" />
            <mxPoint x="1290" y="180" as="targetPoint" />
          </mxGeometry>
        </mxCell>
        <mxCell id="G5kktZHgfrruFAhplKHD-39" value="" style="endArrow=classic;html=1;rounded=0;entryX=1.005;entryY=0.579;entryDx=0;entryDy=0;entryPerimeter=0;exitX=-0.006;exitY=0.366;exitDx=0;exitDy=0;exitPerimeter=0;" edge="1" parent="1" source="G5kktZHgfrruFAhplKHD-22" target="G5kktZHgfrruFAhplKHD-10">
          <mxGeometry width="50" height="50" relative="1" as="geometry">
            <mxPoint x="1240" y="230" as="sourcePoint" />
            <mxPoint x="1290" y="180" as="targetPoint" />
          </mxGeometry>
        </mxCell>
      </root>
    </mxGraphModel>
  </diagram>
</mxfile>
